#!OML:ASF H:\ManfredETheater\Project 1\Capture day 1\Session 1\subject.ASF
:FULLY-SPECIFIED
:DEGREES
330
root -14.9162 16.0204 -39.3268 -150.806 -20.5848 -176.508
lowerback 12.1034 -0.0153347 2.79608
upperback -1.96596 0.591962 4.01613
thorax -8.94316 0.191134 2.61711
lowerneck -18.7286 1.10158 -2.29508
upperneck -3.06042 1.19692 -0.490912
head 2.21464 0.265582 0.320732
rclavicle 0 -3.49861e-014
rhumerus -38.7051 4.95383 -89.5733
rradius 84.9897
rwrist -14.2122
rhand -28.7251 8.14954
rfingers 7.12502
rthumb -2.08621 -21.82
lclavicle 0 -3.49861e-014
lhumerus -54.5108 -8.09136 98.1108
lradius 86.4413
lwrist 14.1143
lhand -26.663 -16.5644
lfingers 7.12502
lthumb -0.0945728 13.4153
rfemur -44.7384 -2.72995 28.9781
rtibia 67.8926
rfoot -31.1033 -14.298
rtoes -46.4755
lfemur -48.7707 5.96893 -17.0461
ltibia 98.2469
lfoot -1.33926 -2.02274
ltoes 0.509991
331
root -15.0394 16.0224 -39.6516 -150.87 -19.8608 -176.1
lowerback 11.791 0.282368 2.73515
upperback -2.08059 0.963496 3.82792
thorax -8.89295 0.372217 2.37497
lowerneck -18.811 1.09287 -2.22424
upperneck -2.82671 1.19214 -0.346465
head 2.31081 0.275598 0.357085
rclavicle 1.03368e-014 -3.02153e-014
rhumerus -37.3392 6.58823 -90.895
rradius 88.2332
rwrist -14.3996
rhand -28.1633 8.54061
rfingers 7.12502
rthumb -1.54361 -21.4336
lclavicle 1.03368e-014 -3.02153e-014
lhumerus -57.6884 -8.59549 98.006
lradius 88.6175
lwrist 15.1728
lhand -26.0803 -16.6607
lfingers 7.12502
lthumb 0.468159 13.3185
rfemur -42.5761 -2.11127 28.838
rtibia 66.3541
rfoot -31.3768 -14.1833
rtoes -46.787
lfemur -52.3593 7.41529 -17.0952
ltibia 100.473
lfoot -2.87556 -2.09583
ltoes 0.0131408
332
root -15.1652 16.0311 -39.9885 -150.983 -19.1497 -175.706
lowerback 11.494 0.616959 2.67484
upperback -2.20228 1.38468 3.60457
thorax -8.85703 0.576887 2.08868
lowerneck -18.8666 1.01278 -2.19557
upperneck -2.61402 1.09751 -0.127448
head 2.39563 0.244933 0.418362
rclavicle 1.03368e-014 -5.20816e-014
rhumerus -36.3074 8.15807 -92.1362
rradius 91.8949
rwrist -14.6795
rhand -27.6014 8.86961
rfingers 7.12502
rthumb -1.00093 -21.1078
lclavicle 1.03368e-014 -5.20816e-014
lhumerus -61.0275 -9.3178 98.0302
lradius 91.3742
lwrist 16.5906
lhand -25.3186 -16.7485
lfingers 7.12502
lthumb 1.20383 13.2279
rfemur -40.22 -1.47402 28.6716
rtibia 64.5969
rfoot -31.4999 -14.0016
rtoes -47.1073
lfemur -55.8414 8.80761 -17.2149
ltibia 102.211
lfoot -4.37048 -2.27183
ltoes -0.532049
333
root -15.2937 16.0479 -40.3388 -151.149 -18.5017 -175.341
lowerback 11.1948 0.985326 2.61749
upperback -2.32359 1.85068 3.36361
thorax -8.81618 0.802803 1.77706
lowerneck -18.8796 0.855046 -2.21247
upperneck -2.43135 0.906336 0.126853
head 2.4637 0.168615 0.49151
rclavicle 7.23576e-014 5.4467e-014
rhumerus -35.5605 9.6765 -93.2352
rradius 95.8596
rwrist -15.0127
rhand -27.0761 9.13503
rfingers 7.12502
rthumb -0.493627 -20.8441
lclavicle 7.23576e-014 5.4467e-014
lhumerus -64.4084 -10.1804 98.1704
lradius 94.4657
lwrist 18.205
lhand -24.4356 -16.7946
lfingers 7.12502
lthumb 2.05671 13.1752
rfemur -37.6596 -0.851147 28.4928
rtibia 62.6
rfoot -31.426 -13.7308
rtoes -47.4191
lfemur -59.182 10.0685 -17.3882
ltibia 103.435
lfoot -5.80581 -2.54057
ltoes -1.18769
334
root -15.4275 16.0727 -40.7003 -151.39 -18.0503 -175.012
lowerback 10.9252 1.34536 2.66718
upperback -2.43452 2.32055 3.1251
thorax -8.77353 1.02439 1.4108
lowerneck -18.8823 0.62188 -2.28158
upperneck -2.26461 0.624621 0.383068
head 2.52636 0.0476472 0.567345
rclavicle -3.06128e-014 -2.50469e-014
rhumerus -35.0219 11.1673 -94.1332
rradius 99.9959
rwrist -15.3201
rhand -26.6107 9.35775
rfingers 7.12502
rthumb -0.0440503 -20.622
lclavicle -3.06128e-014 -2.50469e-014
lhumerus -67.7155 -11.0937 98.3742
lradius 97.67
lwrist 19.7528
lhand -23.4656 -16.7877
lfingers 7.12502
lthumb 2.99344 13.171
rfemur -34.8855 -0.366695 28.3496
rtibia 60.3653
rfoot -31.1283 -13.3455
rtoes -47.7546
lfemur -62.3502 11.0318 -17.5608
ltibia 104.141
lfoot -7.14917 -2.86969
ltoes -1.99109
335
root -15.5675 16.1054 -41.0729 -151.685 -17.8343 -174.758
lowerback 10.6738 1.67464 2.80543
upperback -2.54518 2.76159 2.89348
thorax -8.73211 1.22704 1.011
lowerneck -18.8555 0.329327 -2.38095
upperneck -2.10549 0.271689 0.609765
head 2.58334 -0.109241 0.632979
rclavicle -3.18055e-014 5.56597e-015
rhumerus -34.6576 12.6635 -94.8124
rradius 104.184
rwrist -15.5621
rhand -26.2218 9.60191
rfingers 7.12502
rthumb 0.331543 -20.3776
lclavicle -3.18055e-014 5.56597e-015
lhumerus -70.9053 -11.9683 98.5965
lradius 100.84
lwrist 21.0494
lhand -22.4646 -16.7484
lfingers 7.12502
lthumb 3.96016 13.1946
rfemur -31.9299 -0.0508579 28.2213
rtibia 57.9096
rfoot -30.5396 -12.8302
rtoes -48.1281
lfemur -65.3403 11.6091 -17.7428
ltibia 104.321
lfoot -8.34484 -3.2392
ltoes -2.88608
336
root -15.7143 16.1445 -41.4549 -152.014 -17.8824 -174.569
lowerback 10.4264 1.95681 3.05271
upperback -2.65525 3.15363 2.68158
thorax -8.68205 1.40005 0.583583
lowerneck -18.8312 -0.00510232 -2.50853
upperneck -1.93794 -0.128894 0.796312
head 2.64589 -0.291242 0.686473
rclavicle 4.29375e-014 4.37326e-015
rhumerus -34.4077 14.185 -95.25
rradius 108.313
rwrist -15.6364
rhand -25.8965 9.90438
rfingers 7.12502
rthumb 0.645687 -20.0744
lclavicle 4.29375e-014 4.37326e-015
lhumerus -73.914 -12.7383 98.8034
lradius 103.871
lwrist 21.9922
lhand -21.4999 -16.6414
lfingers 7.12502
lthumb 4.89166 13.2822
rfemur -28.8562 0.0923854 28.1264
rtibia 55.2727
rfoot -29.6383 -12.1327
rtoes -48.5098
lfemur -68.1484 11.7648 -17.9009
ltibia 103.985
lfoot -9.38765 -3.64519
ltoes -3.90845
337
root -15.868 16.1895 -41.8453 -152.366 -18.1804 -174.458
lowerback 10.1873 2.1738 3.37997
upperback -2.76999 3.46885 2.48744
thorax -8.63327 1.53154 0.146931
lowerneck -18.7996 -0.357141 -2.6452
upperneck -1.75706 -0.548777 0.947311
head 2.71345 -0.483936 0.728035
rclavicle 4.13472e-014 2.90226e-014
rhumerus -34.2617 15.7509 -95.4755
rradius 112.305
rwrist -15.4962
rhand -25.5827 10.3162
rfingers 7.12502
rthumb 0.948738 -19.6614
lclavicle 4.13472e-014 2.90226e-014
lhumerus -76.7294 -13.3508 98.9579
lradius 106.695
lwrist 22.5681
lhand -20.6637 -16.1058
lfingers 7.12502
lthumb 5.69901 13.7975
rfemur -25.7062 0.0814763 28.045
rtibia 52.4998
rfoot -28.3653 -11.2092
rtoes -48.8761
lfemur -70.7356 11.5044 -18.0347
ltibia 103.142
lfoot -10.2442 -4.0794
ltoes -4.90079
338
root -16.0284 16.2386 -42.2429 -152.727 -18.6918 -174.416
lowerback 9.94137 2.32267 3.76455
upperback -2.88183 3.69894 2.31202
thorax -8.57184 1.61908 -0.284058
lowerneck -18.8014 -0.709723 -2.7933
upperneck -1.55252 -0.965802 1.0762
head 2.79677 -0.676403 0.764225
rclavicle -7.95139e-015 3.37934e-014
rhumerus -34.191 17.3544 -95.5137
rradius 116.098
rwrist -15.1081
rhand -25.2403 10.8678
rfingers 7.12502
rthumb 1.27945 -19.1081
lclavicle -7.95139e-015 3.37934e-014
lhumerus -79.3134 -13.7784 99.0649
lradius 109.276
lwrist 22.9432
lhand -20.0931 -15.5124
lfingers 7.12502
lthumb 6.24994 14.3754
rfemur -22.5368 -0.0344615 27.971
rtibia 49.6461
rfoot -26.7012 -10.002
rtoes -49.1467
lfemur -73.0686 10.8891 -18.1348
ltibia 101.816
lfoot -10.9692 -4.53278
ltoes -5.89957
339
root -16.1953 16.2918 -42.6485 -153.074 -19.3677 -174.403
lowerback 9.64878 2.41489 4.19814
upperback -2.99444 3.85523 2.15852
thorax -8.48112 1.66903 -0.702282
lowerneck -18.8354 -1.05222 -2.94203
upperneck -1.32919 -1.36894 1.19346
head 2.89371 -0.862845 0.797243
rclavicle -7.55382e-015 8.74653e-015
rhumerus -34.192 18.9684 -95.3995
rradius 119.644
rwrist -14.4631
rhand -24.8383 11.5749
rfingers 7.12502
rthumb 1.66774 -18.3983
lclavicle -7.55382e-015 8.74653e-015
lhumerus -81.6398 -14.0183 99.1051
lradius 111.584
lwrist 23.1639
lhand -19.7297 -14.6942
lfingers 7.12502
lthumb 6.60079 15.1829
rfemur -19.407 -0.196554 27.9224
rtibia 46.7516
rfoot -24.6123 -8.43649
rtoes -49.1814
lfemur -75.1397 10.0172 -18.1756
ltibia 100.031
lfoot -11.5956 -5.00767
ltoes -6.97622
340
root -16.3671 16.3486 -43.0619 -153.382 -20.1069 -174.405
lowerback 9.28704 2.47616 4.61636
upperback -3.11105 3.9617 2.01733
thorax -8.35593 1.69686 -1.08556
lowerneck -18.9068 -1.37637 -3.08546
upperneck -1.08897 -1.74951 1.31832
head 3.00463 -1.03816 0.832983
rclavicle -3.53837e-014 -1.27222e-014
rhumerus -34.2697 20.5432 -95.194
rradius 122.912
rwrist -13.5428
rhand -24.3523 12.3966
rfingers 7.12502
rthumb 2.13716 -17.5724
lclavicle -3.53837e-014 -1.27222e-014
lhumerus -83.6926 -14.0926 99.0696
lradius 113.597
lwrist 23.3102
lhand -19.6587 -13.7588
lfingers 7.12502
lthumb 6.66928 16.1162
rfemur -16.3747 -0.312087 27.8755
rtibia 43.8455
rfoot -22.0127 -6.52362
rtoes -48.8386
lfemur -76.9465 9.02684 -18.1804
ltibia 97.8169
lfoot -12.1535 -5.50326
ltoes -8.05332
